<svg width="96" height="96" viewBox="0 0 96 96" fill="none" xmlns="http://www.w3.org/2000/svg">
  <rect width="96" height="96" rx="28" fill="#F8B6B2"/>
  <path d="M49 22C35.5 22 26 31.6 26 47.8C26 63.3 36 74 50.2 74C58.6 74 65.2 71.1 70.2 65.7L63.6 60C60.3 63.5 55.9 65.5 50.8 65.5C42 65.5 36 59.5 36 48.6C36 38 42 31.5 50.6 31.5C55.5 31.5 59.6 33.2 62.8 36.6L69.2 30.1C64.3 24.8 57.8 22 49 22Z" fill="#FFF8F2"/>
  <path d="M52 48H71V55H58.5" stroke="#FFF8F2" stroke-width="6" stroke-linecap="round" stroke-linejoin="round"/>
</svg>
